<svg width="21" height="9" viewBox="0 0 21 9" fill="none" xmlns="http://www.w3.org/2000/svg">
<path d="M0.752 9C0.416 9 0.248 8.832 0.248 8.496V1.368C0.248 1.032 0.416 0.864 0.752 0.864H5.06C5.396 0.864 5.564 1.032 5.564 1.368C5.564 1.704 5.396 1.872 5.06 1.872H1.256V4.392H3.644C3.98 4.392 4.148 4.56 4.148 4.896C4.148 5.232 3.98 5.4 3.644 5.4H1.256V7.992H5.06C5.396 7.992 5.564 8.16 5.564 8.496C5.564 8.832 5.396 9 5.06 9H0.752ZM9.17919 9C8.38319 9 7.79119 8.808 7.40319 8.424C7.01919 8.036 6.82719 7.444 6.82719 6.648V5.268C6.82719 4.468 7.01919 3.876 7.40319 3.492C7.79119 3.108 8.38319 2.916 9.17919 2.916H11.5072V1.056C11.5072 0.719999 11.6752 0.551999 12.0112 0.551999C12.3472 0.551999 12.5152 0.719999 12.5152 1.056V8.496C12.5152 8.832 12.3472 9 12.0112 9C11.6752 9 11.5072 8.832 11.5072 8.496V8.412C11.3192 8.604 11.0732 8.75 10.7692 8.85C10.4652 8.95 10.0872 9 9.63519 9H9.17919ZM9.17919 7.992H9.63519C10.1632 7.992 10.6072 7.924 10.9672 7.788C11.3272 7.652 11.5072 7.444 11.5072 7.164V3.924H9.17919C8.65919 3.924 8.30519 4.02 8.11719 4.212C7.92919 4.4 7.83519 4.752 7.83519 5.268V6.648C7.83519 7.168 7.92919 7.522 8.11719 7.71C8.30919 7.898 8.66319 7.992 9.17919 7.992ZM19.8404 2.916C20.1764 2.916 20.3444 3.084 20.3444 3.42V8.496C20.3444 8.832 20.1764 9 19.8404 9C19.5044 9 19.3364 8.832 19.3364 8.496V8.298C18.9124 8.766 18.2884 9 17.4644 9H17.1284C16.3324 9 15.7404 8.808 15.3524 8.424C14.9684 8.036 14.7764 7.444 14.7764 6.648V3.42C14.7764 3.084 14.9444 2.916 15.2804 2.916C15.6164 2.916 15.7844 3.084 15.7844 3.42V6.648C15.7844 7.168 15.8784 7.522 16.0664 7.71C16.2584 7.898 16.6124 7.992 17.1284 7.992H17.4644C17.9444 7.992 18.3624 7.936 18.7184 7.824C19.0784 7.712 19.2844 7.54 19.3364 7.308V3.42C19.3364 3.084 19.5044 2.916 19.8404 2.916Z" fill="black"/>
</svg>
